<svg xmlns="http://www.w3.org/2000/svg" width="229.614" height="39.185" viewBox="0 0 229.614 39.185"><defs><style>.a{fill:#fff;}</style></defs><path class="a" d="M18.433-38.159h8.2L45.093,0h-8.13L33.911-6.421H11.621L8.667,0H.513ZM30.859-12.793,22.607-30.127,14.575-12.793ZM51.025-38.159H71.411a23.765,23.765,0,0,1,6.506.793,13.826,13.826,0,0,1,4.6,2.185,8.791,8.791,0,0,1,2.722,3.308,9.693,9.693,0,0,1,.891,4.138,9.611,9.611,0,0,1-2.295,6.372,10.1,10.1,0,0,1,3.931,4.053,12.1,12.1,0,0,1,1.294,5.664,12.444,12.444,0,0,1-.891,4.81,9.477,9.477,0,0,1-2.71,3.674,12.587,12.587,0,0,1-4.59,2.344A23.2,23.2,0,0,1,74.341,0H51.025ZM74.39-23.511q1,0,1.953.073A4.808,4.808,0,0,0,77.979-27a3.689,3.689,0,0,0-1.624-3.21,8.265,8.265,0,0,0-4.749-1.135H58.765v7.837Zm.146,16.772a7.291,7.291,0,0,0,4.749-1.343,4.636,4.636,0,0,0,1.624-3.784,4.708,4.708,0,0,0-1.624-3.809,7.2,7.2,0,0,0-4.749-1.367H58.765v10.3Zm34.058-2.71L91.919-38.159h8.765l11.743,21.7,11.6-21.7h8.765L116.333-9.5V0h-7.739Zm31.836-1.9q2.075,1.172,4.211,2.112a33.675,33.675,0,0,0,4.431,1.587,35.09,35.09,0,0,0,4.822.989,40.2,40.2,0,0,0,5.383.342,32.472,32.472,0,0,0,5.859-.452A14.343,14.343,0,0,0,169.08-8.02,5.593,5.593,0,0,0,171.3-9.912,4.386,4.386,0,0,0,172-12.3a3.8,3.8,0,0,0-1.733-3.284,9.444,9.444,0,0,0-5.347-1.208,28.574,28.574,0,0,0-3.345.208q-1.758.208-3.552.452t-3.54.452a27.892,27.892,0,0,1-3.284.208,18.173,18.173,0,0,1-4.919-.659,13.02,13.02,0,0,1-4.175-1.978,9.794,9.794,0,0,1-2.893-3.3,9.519,9.519,0,0,1-1.074-4.614,11.535,11.535,0,0,1,.427-3.1,10.153,10.153,0,0,1,1.367-2.942,11.941,11.941,0,0,1,2.429-2.612,14.547,14.547,0,0,1,3.6-2.087,23.694,23.694,0,0,1,4.883-1.379,35.756,35.756,0,0,1,6.311-.5,47.729,47.729,0,0,1,5.151.281q2.588.281,5.042.793a48.27,48.27,0,0,1,4.724,1.233,39.11,39.11,0,0,1,4.224,1.6l-3.394,6.25a36.332,36.332,0,0,0-3.467-1.306q-1.855-.6-3.882-1.038t-4.187-.7a37.376,37.376,0,0,0-4.407-.256,24.635,24.635,0,0,0-5.261.464,11.513,11.513,0,0,0-3.284,1.184,4.346,4.346,0,0,0-1.7,1.611,3.731,3.731,0,0,0-.476,1.77,3.293,3.293,0,0,0,1.538,2.8,8.17,8.17,0,0,0,4.688,1.086,26.766,26.766,0,0,0,2.917-.183q1.648-.183,3.467-.4t3.711-.4q1.892-.183,3.674-.183a21.4,21.4,0,0,1,5.969.757,12.494,12.494,0,0,1,4.358,2.161,9.122,9.122,0,0,1,2.661,3.394,10.658,10.658,0,0,1,.9,4.456A11.3,11.3,0,0,1,178.6-7.41a12.9,12.9,0,0,1-4.346,4.346,21.983,21.983,0,0,1-6.8,2.686,39.6,39.6,0,0,1-8.862.916,48.469,48.469,0,0,1-6.3-.4,46.957,46.957,0,0,1-5.9-1.147A44.192,44.192,0,0,1,141.028-2.8,39.18,39.18,0,0,1,136.3-5.078Zm50,0q2.075,1.172,4.211,2.112a33.675,33.675,0,0,0,4.431,1.587,35.09,35.09,0,0,0,4.822.989,40.2,40.2,0,0,0,5.383.342,32.472,32.472,0,0,0,5.859-.452A14.343,14.343,0,0,0,219.08-8.02,5.593,5.593,0,0,0,221.3-9.912,4.386,4.386,0,0,0,222-12.3a3.8,3.8,0,0,0-1.733-3.284,9.444,9.444,0,0,0-5.347-1.208,28.574,28.574,0,0,0-3.345.208q-1.758.208-3.552.452t-3.54.452a27.892,27.892,0,0,1-3.284.208,18.173,18.173,0,0,1-4.919-.659,13.02,13.02,0,0,1-4.175-1.978,9.794,9.794,0,0,1-2.893-3.3,9.519,9.519,0,0,1-1.074-4.614,11.535,11.535,0,0,1,.427-3.1,10.153,10.153,0,0,1,1.367-2.942,11.941,11.941,0,0,1,2.429-2.612,14.547,14.547,0,0,1,3.6-2.087,23.694,23.694,0,0,1,4.883-1.379,35.756,35.756,0,0,1,6.311-.5,47.729,47.729,0,0,1,5.151.281q2.588.281,5.042.793a48.27,48.27,0,0,1,4.724,1.233,39.11,39.11,0,0,1,4.224,1.6l-3.394,6.25a36.332,36.332,0,0,0-3.467-1.306q-1.855-.6-3.882-1.038t-4.187-.7a37.376,37.376,0,0,0-4.407-.256,24.635,24.635,0,0,0-5.261.464,11.513,11.513,0,0,0-3.284,1.184,4.346,4.346,0,0,0-1.7,1.611,3.731,3.731,0,0,0-.476,1.77,3.293,3.293,0,0,0,1.538,2.8,8.17,8.17,0,0,0,4.688,1.086,26.766,26.766,0,0,0,2.917-.183q1.648-.183,3.467-.4t3.711-.4q1.892-.183,3.674-.183a21.4,21.4,0,0,1,5.969.757,12.494,12.494,0,0,1,4.358,2.161,9.122,9.122,0,0,1,2.661,3.394,10.658,10.658,0,0,1,.9,4.456A11.3,11.3,0,0,1,228.6-7.41a12.9,12.9,0,0,1-4.346,4.346,21.983,21.983,0,0,1-6.8,2.686,39.6,39.6,0,0,1-8.862.916,48.469,48.469,0,0,1-6.3-.4,46.957,46.957,0,0,1-5.9-1.147A44.192,44.192,0,0,1,191.028-2.8,39.18,39.18,0,0,1,186.3-5.078Z" transform="translate(-0.513 38.647)"/></svg>